# 3ds Max Wavefront OBJ Exporter v0.97b - (c)2007 guruware
# File Created: 25.04.2020 18:50:21

mtllib Pared Lisa.mtl

#
# object Plane001
#

v  -92.9390 0.0000 48.6217
v  -92.9390 0.0000 98.6217
v  -42.9390 0.0000 98.6217
v  -42.9390 0.0000 48.6217
v  7.0610 0.0000 98.6217
v  7.0610 0.0000 48.6217
v  57.0610 0.0000 98.6217
v  57.0610 0.0000 48.6217
v  107.0610 0.0000 98.6217
v  107.0610 0.0000 48.6217
v  -92.9390 0.0000 -1.3783
v  -42.9390 0.0000 -1.3783
v  7.0610 0.0000 -1.3783
v  57.0610 0.0000 -1.3783
v  107.0610 0.0000 -1.3783
v  -92.9390 0.0000 -51.3783
v  -42.9390 0.0000 -51.3783
v  7.0610 0.0000 -51.3783
v  57.0610 0.0000 -51.3783
v  107.0610 0.0000 -51.3783
v  -92.9390 0.0000 -101.3783
v  -42.9390 0.0000 -101.3783
v  7.0610 0.0000 -101.3783
v  57.0610 0.0000 -101.3783
v  107.0610 0.0000 -101.3783
# 25 vertices

vn 0.0000 1.0000 -0.0000
# 1 vertex normals

vt 0.0005 0.2503 0.0000
vt 0.0005 0.0005 0.0000
vt 0.2503 0.0005 0.0000
vt 0.2503 0.2503 0.0000
vt 0.5000 0.0005 0.0000
vt 0.5000 0.2503 0.0000
vt 0.7497 0.0005 0.0000
vt 0.7497 0.2503 0.0000
vt 0.9995 0.0005 0.0000
vt 0.9995 0.2503 0.0000
vt 0.0005 0.5000 0.0000
vt 0.2503 0.5000 0.0000
vt 0.5000 0.5000 0.0000
vt 0.7497 0.5000 0.0000
vt 0.9995 0.5000 0.0000
vt 0.0005 0.7497 0.0000
vt 0.2503 0.7497 0.0000
vt 0.5000 0.7497 0.0000
vt 0.7497 0.7497 0.0000
vt 0.9995 0.7497 0.0000
vt 0.0005 0.9995 0.0000
vt 0.2503 0.9995 0.0000
vt 0.5000 0.9995 0.0000
vt 0.7497 0.9995 0.0000
vt 0.9995 0.9995 0.0000
# 25 texture coords

o Plane001
g Plane001
usemtl wire_061135006
s 1
f 1/1/1 2/2/1 3/3/1 4/4/1 
f 4/4/1 3/3/1 5/5/1 6/6/1 
f 6/6/1 5/5/1 7/7/1 8/8/1 
f 8/8/1 7/7/1 9/9/1 10/10/1 
f 11/11/1 1/1/1 4/4/1 12/12/1 
f 12/12/1 4/4/1 6/6/1 13/13/1 
f 13/13/1 6/6/1 8/8/1 14/14/1 
f 14/14/1 8/8/1 10/10/1 15/15/1 
f 16/16/1 11/11/1 12/12/1 17/17/1 
f 17/17/1 12/12/1 13/13/1 18/18/1 
f 18/18/1 13/13/1 14/14/1 19/19/1 
f 19/19/1 14/14/1 15/15/1 20/20/1 
f 21/21/1 16/16/1 17/17/1 22/22/1 
f 22/22/1 17/17/1 18/18/1 23/23/1 
f 23/23/1 18/18/1 19/19/1 24/24/1 
f 24/24/1 19/19/1 20/20/1 25/25/1 
# 16 polygons

